<svg version="1" xmlns="http://www.w3.org/2000/svg" width="533.333" height="533.333" viewBox="0 0 400.000000 400.000000"><path d="M207.5 54.8c-4.1.7-7.4 2.5-8 4.2-1 3-4.1 20.1-9.1 49-1.3 8-2.9 16.5-3.4 19s-1.2 5.8-1.4 7.5c-1.1 6.9-4.7 27.1-5.1 28.5-.2.8-.6 3.3-1 5.5-.3 2.2-1 6.5-1.5 9.5s-1.2 7.3-1.6 9.5c-.3 2.2-.7 4.1-.9 4.3-.2.2-2.5-10.7-4.2-19.8-1.7-9.3-3.5-16.5-4.4-17.6-.6-.8-2.7-1.7-4.8-2-6.5-1.3-88.4-.8-90.8.5-2.5 1.3-3.7 6.1-3 11.7.5 3.8 2.7 6.3 5.6 6.5.9 0 18.7.1 39.6.2l37.9.2.8 3c.6 2.6 4.2 21.3 5.4 28.5.3 1.4.7 3.2.9 4 .2.8.7 3.1 1 5 .3 1.9 1.2 6.6 2 10.5.8 3.8 1.7 8.4 2 10.2 1.6 9.7 3.5 16.7 4.8 18 .8.8 4.1 1.7 7.5 2 5.5.5 6.1.4 7.5-1.8 1.3-1.9 4.9-19.4 9.2-44.9 3.7-21.2 10.5-59.5 11-61 .2-.8.7-3.5 1-6 .3-2.5.8-5.2 1-6 .2-.8.6-3.3 1-5.5 1.1-8 1.7-10.5 2.6-10.5.5 0 .8.3.7.7-.2.7 1.2 8.7 2.7 16.3.3 1.4 1.7 8.6 3.1 16 3 15.9 4.4 19.5 7.6 20.6 1.2.4 21.4.7 44.7.6 41 0 42.5-.1 44.4-2 1.3-1.4 2.1-3.6 2.2-6.8.3-6-1.1-9.3-4.4-10.1-1.4-.3-18.7-.7-38.5-.7l-36.1-.1-2.2-11c-1.2-6.1-2.4-12.4-2.7-14-.3-1.7-1-5.5-1.6-8.5-.6-3-1.3-6.6-1.5-8-.3-1.4-2.1-10.8-4-21-2-10.2-4.1-21.1-4.7-24.3-.5-3.1-1.9-6.8-3-8.2-1.8-2.3-3.1-2.6-8.3-1.7zM239.2 257c-.4.3-.7 15.2-.7 33.3 0 25.4.3 32.7 1.3 32.8.6.1 2.9.2 5 .3l3.7.1v-67h-4.3c-2.4 0-4.6.2-5 .5zM70.3 278.7c-.8.3 1 6.5 5.4 19.1 3.6 10.3 7 20.2 7.6 21.9.6 1.8 1.5 3.3 2.1 3.4.6 0 2.7.2 4.7.3l3.6.2 3.1-8.6c11.2-31.3 12.4-35.3 11.3-36-1.8-1-8.2-.4-9.1.9-.4.7-2.6 7.7-5 15.6-2.4 8-4.4 14.4-4.6 14.2-.1-.1-2.2-6.9-4.8-15.1-2.5-8.2-4.7-15.1-5-15.3-.6-.6-7.9-1.1-9.3-.6zM125.8 280.3c-7.5 3.7-11.9 12.6-11.3 22.7.8 13.3 8.7 20.9 21.6 21 6.1 0 9.3-1.2 14.1-5.5 9.4-8.4 9.4-27.8-.1-35.8-6-5-16.8-6.1-24.3-2.4zm15.2 8.2c5.7 2.9 8.2 12.4 5.3 19.7-3.6 9.1-16.8 9-20.5-.1-5.4-13.3 4-25.4 15.2-19.6zM179 279.7c-6.8 2.9-11.5 8.8-12.6 15.9-1.1 6.9-1.1 8.8-.2 12.8 2.9 13 13.8 18.2 30.2 14.5 5.6-1.2 5.7-1.3 5-4.3-.8-4.2-1.5-4.7-5-3.7-8.2 2.3-18-1-19.8-6.7l-.7-2.2h28.4l-.5-8.5c-.6-9.6-2.5-13.7-7.8-17.2-3.9-2.7-11.5-3-17-.6zm11.9 9c1.2 1 2.4 3.4 2.7 5.4l.6 3.6-8.8-.2-8.9-.1.2-2.9c.5-6.1 9.3-9.7 14.2-5.8zM263 278.7c-1.3.3-1.5 3.5-1.5 22.6l.1 22.2 4-.2c2.1 0 4.4-.2 4.9-.2.7-.1 1-6 1-16.7 0-13.1.3-16.8 1.4-17.7.8-.7 4.6-1.2 8.5-1.3h7.1l.9-3.7c.5-2 .7-3.9.4-4.2-1.4-1.5-12.6-1.6-16-.2-2.2.9-3.9 1.2-4.5.6-1.1-1.1-4.2-1.7-6.3-1.2zM305.2 280.3c-7.4 3.4-11.5 11.3-11.5 22.2 0 15.7 11.1 24.2 27.2 20.9 3.5-.7 6.6-1.5 6.8-1.8.3-.3 0-2.1-.7-4-1.1-3.3-1.3-3.5-4.3-2.9-5 1.1-10.5.7-13.4-.8-3.7-2-6.2-8.2-5.9-14.4.6-9.3 5.3-13.2 14.9-12.2 2.9.3 5.8.7 6.6.9.8.2 1.8-1.2 2.6-3.4l1.4-3.7-4.9-1.6c-6.1-2-13.6-1.7-18.8.8zM57.8 384.7c.7.3 1.6.2 1.9-.1.4-.3-.2-.6-1.3-.5-1.1 0-1.4.3-.6.6zM110.9 385.7c-1.3 1.7-1.3 1.7.6.3 1.1-.8 2.2-1.6 2.4-1.7.2-.2 0-.3-.6-.3s-1.7.8-2.4 1.7zM118.9 385.7c-1.3 1.7-1.3 1.7.6.3 1.1-.8 2.2-1.6 2.4-1.7.2-.2 0-.3-.6-.3s-1.7.8-2.4 1.7zM132.2 386.1c-.8 1.2-.9 1.8-.4 1.5.6-.3 1.2 0 1.5.6.2.7.4.1.4-1.5 0-1.5 0-2.7-.1-2.7s-.7.9-1.4 2.1zM144.9 385.7c-1.3 1.6-1.2 1.7.4.4 1.6-1.3 2.1-2.1 1.3-2.1-.2 0-1 .8-1.7 1.7zM153.6 385.7c-.6 1.4-.5 1.5.5.6.7-.7 1-1.5.7-1.8-.3-.3-.9.2-1.2 1.2zM156 384.4c0 .2.7.7 1.6 1 .8.3 1.2.2.9-.4-.6-1-2.5-1.4-2.5-.6zM166 384.4c0 .2.8 1 1.8 1.7 1.5 1.3 1.6 1.2.3-.4s-2.1-2.1-2.1-1.3zM220.8 384.7c.7.3 1.6.2 1.9-.1.4-.3-.2-.6-1.3-.5-1.1 0-1.4.3-.6.6zM238.8 384.7c.7.3 1.6.2 1.9-.1.4-.3-.2-.6-1.3-.5-1.1 0-1.4.3-.6.6zM287 386c.6 1.1 1.3 2 1.6 2 .2 0 0-.9-.6-2s-1.3-2-1.6-2c-.2 0 0 .9.6 2zM311.6 385.7c-.6 1.4-.5 1.5.5.6.7-.7 1-1.5.7-1.8-.3-.3-.9.2-1.2 1.2zM325.8 384.7c.7.3 1.6.2 1.9-.1.4-.3-.2-.6-1.3-.5-1.1 0-1.4.3-.6.6zM127 386c0 .5.5 1 1.1 1 .5 0 .7-.5.4-1-.3-.6-.8-1-1.1-1-.2 0-.4.4-.4 1zM137.7 386.1c.7.7 1.5 1 1.8.7.3-.3-.2-.9-1.2-1.2-1.4-.6-1.5-.5-.6.5zM223.6 386.7c-.6 1.4-.5 1.5.5.6.7-.7 1-1.5.7-1.8-.3-.3-.9.2-1.2 1.2zM71.7 387.1c.7.7 1.5 1 1.8.7.3-.3-.2-.9-1.2-1.2-1.4-.6-1.5-.5-.6.5zM88.6 387.7c-.6 1.4-.5 1.5.5.6.7-.7 1-1.5.7-1.8-.3-.3-.9.2-1.2 1.2zM28.7 388.1c.7.7 1.5 1 1.8.7.3-.3-.2-.9-1.2-1.2-1.4-.6-1.5-.5-.6.5zM50.1 388.6c0 1.1.3 1.4.6.6.3-.7.2-1.6-.1-1.9-.3-.4-.6.2-.5 1.3zM60.5 388c-.3.5-.1 1 .4 1 .6 0 1.1-.5 1.1-1 0-.6-.2-1-.4-1-.3 0-.8.4-1.1 1zM85.7 388.9c-.4 1.7-.3 2.1.5 1.3.5-.5.8-1.6.6-2.3-.3-.8-.7-.3-1.1 1zM243.8 387.7c.7.3 1.6.2 1.9-.1.4-.3-.2-.6-1.3-.5-1.1 0-1.4.3-.6.6zM247 387.4c0 .2.7.7 1.6 1 .8.3 1.2.2.9-.4-.6-1-2.5-1.4-2.5-.6zM75.6 389.3c.3 1 .9 1.5 1.2 1.2.3-.3 0-1.1-.7-1.8-1-.9-1.1-.8-.5.6zM265.5 388.9c-.3.5-.2 1.2.3 1.5.5.3.9-.1.9-.9 0-1.7-.3-1.9-1.2-.6zM45.6 390.7c-.6 1.4-.5 1.5.5.6.7-.7 1-1.5.7-1.8-.3-.3-.9.2-1.2 1.2zM118 389.4c0 .2.8 1 1.8 1.7 1.5 1.3 1.6 1.2.3-.4s-2.1-2.1-2.1-1.3zM129.6 390.2c.3.5 1 .6 1.5.3 1.3-.9 1.1-1.2-.6-1.2-.8 0-1.2.4-.9.9zM149.6 390.7c-.6 1.4-.5 1.5.5.6.7-.7 1-1.5.7-1.8-.3-.3-.9.2-1.2 1.2zM185 389.4c0 .2.8 1 1.8 1.7 1.5 1.3 1.6 1.2.3-.4s-2.1-2.1-2.1-1.3zM205.7 390.1c.7.7 1.5 1 1.8.7.3-.3-.2-.9-1.2-1.2-1.4-.6-1.5-.5-.6.5zM219.6 390.3c.3 1 .9 1.5 1.2 1.2.3-.3 0-1.1-.7-1.8-1-.9-1.1-.8-.5.6zM251 389.4c0 .2.8 1 1.8 1.7 1.5 1.3 1.6 1.2.3-.4s-2.1-2.1-2.1-1.3zM269 390c0 .5.5 1 1.1 1 .5 0 .7-.5.4-1-.3-.6-.8-1-1.1-1-.2 0-.4.4-.4 1zM289.6 390.2c.3.5 1 .6 1.5.3 1.3-.9 1.1-1.2-.6-1.2-.8 0-1.2.4-.9.9zM315.9 390.7c-1.3 1.6-1.2 1.7.4.4 1.6-1.3 2.1-2.1 1.3-2.1-.2 0-1 .8-1.7 1.7zM37.5 391c.3.5.8 1 1.1 1 .2 0 .4-.5.4-1 0-.6-.5-1-1.1-1-.5 0-.7.4-.4 1zM154.7 391.1c.7.7 1.5 1 1.8.7.3-.3-.2-.9-1.2-1.2-1.4-.6-1.5-.5-.6.5z"/></svg>